<svg width="29" height="24" viewBox="0 0 29 24" fill="none" xmlns="http://www.w3.org/2000/svg">
<path fill-rule="evenodd" clip-rule="evenodd" d="M20.0621 0.015292C18.4384 0.211715 16.9697 0.795916 15.72 1.74236C14.847 2.40347 13.9756 3.38209 13.4475 4.29419C12.921 5.20378 12.629 6 12.245 8.64867C11.896 10.419 11.5972 11.9285 11.5812 12.003L11.552 12.1384L19.8136 12.126L28.0753 12.1135L28.2224 11.7691C29.2959 9.25413 29.2575 6.77187 28.1096 4.48688C27.1095 2.49602 25.4429 1.06984 23.3059 0.376254C22.9831 0.271498 22.514 0.149767 22.2635 0.105828C21.8242 0.0287738 20.426 -0.0287458 20.0621 0.015292ZM6.23852 2.64506C3.54253 2.97001 1.24608 4.83677 0.351957 7.43013C0.0743265 8.23535 0.00358281 8.69221 0.00014153 9.70253C-0.00324914 10.6801 0.0532789 11.1096 0.27848 11.8185L0.380201 12.1387L4.68737 12.1261L8.99447 12.1135L9.13627 11.4001C9.21426 11.0077 9.55368 9.29167 9.89052 7.58674C10.2274 5.88182 10.544 4.28066 10.5939 4.02859L10.6848 3.57025L10.2495 3.35774C9.02697 2.76084 7.51169 2.49159 6.23852 2.64506ZM1.89805 15.2749C2.65113 16.5009 4.25801 18.26 5.69029 19.4264C6.50263 20.088 7.27662 20.6537 7.3122 20.6119C7.3287 20.5925 7.40552 20.2335 7.48295 19.814C7.61751 19.085 8.34852 15.356 8.39209 15.1765C8.41183 15.0952 8.22939 15.0904 5.09885 15.0904H1.78469L1.89805 15.2749ZM10.2787 18.5716C9.89619 20.4863 9.58394 22.0669 9.58486 22.0841C9.58885 22.1633 11.7041 23.2544 12.7644 23.7243L13.3867 24L14.1605 23.6813C19.5135 21.4766 23.459 18.7905 25.9928 15.6256C26.2101 15.3541 26.3879 15.1227 26.3879 15.1112C26.3879 15.0997 22.9198 15.0904 18.6811 15.0904H10.9742L10.2787 18.5716Z" fill="#DF041F"/>
</svg>
